<svg id="Layer_1" data-name="Layer 1" xmlns="http://www.w3.org/2000/svg" xmlns:xlink="http://www.w3.org/1999/xlink" viewBox="0 0 1900 566.67"><defs><style>.cls-1{fill:#231f20;}.cls-2{fill:#457fc1;}.cls-3{fill:#fff;}</style></defs><rect class="cls-1" width="1900" height="565"/><polygon class="cls-2" points="1052.16 0 1296.89 282.5 1512.68 282.5 1282.42 0 1052.16 0"/><path class="cls-2" d="M0,565H1900V542.37h0a129,129,0,0,0-83-30.26H1066.1q-13.93,0-27.82,1.35l-148,14.43L756.11,538.55,579.43,552.31q-7.53.59-15.1.66l-131.91,1.24H340.63q-8.2,0-16.41-.5l-45.78-2.8q-10.49-.64-20.91-2l-79.06-10.35L0,512.11Z"/><image width="1209" height="510" transform="translate(1032 201.36) scale(0.72)" xlink:href="../../../../../Users/reaga/Downloads/pngwing.com%20-%202024-05-30T152144.226.png"/><circle class="cls-3" cx="1765.39" cy="158.08" r="79.71"/><path class="cls-1" d="M1700.4,160.86,1706,148h4.27l5.64,12.89h-4.49L1707.28,150h1.7l-4.16,10.83Zm3.35-2.25,1.1-3.13h5.93l1.11,3.13Z"/><path class="cls-1" d="M1721,160.86h-4.34V148h10.48v3.28H1721Zm-.29-7.4h5.67v3.28h-5.67Z"/><path class="cls-1" d="M1732.84,160.86h-4.34V148H1739v3.28h-6.13Zm-.29-7.4h5.67v3.28h-5.67Z"/><path class="cls-1" d="M1747.11,161.15a8.29,8.29,0,0,1-2.9-.49,6.77,6.77,0,0,1-2.31-1.41,6.42,6.42,0,0,1-1.52-2.15,7,7,0,0,1,0-5.38,6.48,6.48,0,0,1,1.52-2.14,7.1,7.1,0,0,1,2.31-1.41,8.86,8.86,0,0,1,5.81,0,7.16,7.16,0,0,1,2.3,1.41,6.48,6.48,0,0,1,1.52,2.14,7,7,0,0,1,0,5.38,6.42,6.42,0,0,1-1.52,2.15,6.83,6.83,0,0,1-2.3,1.41A8.23,8.23,0,0,1,1747.11,161.15Zm0-3.51a3,3,0,0,0,1.13-.22,2.68,2.68,0,0,0,.92-.64,2.78,2.78,0,0,0,.62-1,4.28,4.28,0,0,0,0-2.71,2.87,2.87,0,0,0-.62-1,2.68,2.68,0,0,0-.92-.64,3,3,0,0,0-1.13-.22,3,3,0,0,0-1.13.22,2.68,2.68,0,0,0-.92.64,2.87,2.87,0,0,0-.62,1,4.28,4.28,0,0,0,0,2.71,2.78,2.78,0,0,0,.62,1,2.68,2.68,0,0,0,.92.64A3,3,0,0,0,1747.11,157.64Z"/><path class="cls-1" d="M1756,160.86V148h6.2a7.58,7.58,0,0,1,3.12.59,4.46,4.46,0,0,1,2.76,4.27,4.35,4.35,0,0,1-2.76,4.22,7.76,7.76,0,0,1-3.12.57h-3.79l1.93-1.79v5Zm4.34-4.55-1.93-2h3.52a1.89,1.89,0,0,0,1.33-.4,1.63,1.63,0,0,0,0-2.21,1.89,1.89,0,0,0-1.33-.41h-3.52l1.93-2Zm3.37,4.55-3.16-4.69h4.6l3.2,4.69Z"/><path class="cls-1" d="M1769.68,160.86V148H1776a8.73,8.73,0,0,1,3.79.78,6.17,6.17,0,0,1,2.56,2.22,6.89,6.89,0,0,1,0,6.88,6.06,6.06,0,0,1-2.56,2.23,8.73,8.73,0,0,1-3.79.78Zm4.35-3.39h1.82a3.41,3.41,0,0,0,1.61-.35,2.52,2.52,0,0,0,1.08-1,3.37,3.37,0,0,0,.39-1.68,3.29,3.29,0,0,0-.39-1.66,2.55,2.55,0,0,0-1.08-1,3.54,3.54,0,0,0-1.61-.35H1774Z"/><path class="cls-1" d="M1783.49,160.86l5.64-12.89h4.27l5.63,12.89h-4.49L1790.38,150h1.69l-4.16,10.83Zm3.35-2.25,1.11-3.13h5.93l1.1,3.13Z"/><path class="cls-1" d="M1799.73,160.86V148h6.89a6.63,6.63,0,0,1,3.94.95,2.89,2.89,0,0,1,1.27,2.42,2.94,2.94,0,0,1-.54,1.74,3.65,3.65,0,0,1-1.58,1.21,6.5,6.5,0,0,1-2.54.44l.37-1a7.28,7.28,0,0,1,2.61.43,3.73,3.73,0,0,1,1.69,1.22,3.15,3.15,0,0,1,.6,1.93,3,3,0,0,1-1.39,2.61,7.23,7.23,0,0,1-4.06.94Zm4.28-3h2.61a1.79,1.79,0,0,0,1.08-.26.86.86,0,0,0,.36-.75.89.89,0,0,0-.36-.76,1.87,1.87,0,0,0-1.08-.25h-2.91v-2.88H1806a1.92,1.92,0,0,0,1.08-.24.86.86,0,0,0,.34-.71.84.84,0,0,0-.34-.72A1.92,1.92,0,0,0,1806,151h-2Z"/><path class="cls-1" d="M1814,160.86V148h4.34v9.52h5.82v3.37Z"/><path class="cls-1" d="M1829.6,157.58H1836v3.28h-10.71V148h10.47v3.28h-6.2Zm-.3-4.82h5.75v3.13h-5.75Z"/><path class="cls-1" d="M1734.94,183V170.07h6.2a7.51,7.51,0,0,1,3.13.59,4.78,4.78,0,0,1,2,6.85,4.76,4.76,0,0,1-2,1.68,7.5,7.5,0,0,1-3.13.6h-3.79l1.93-1.86v5Zm4.34-4.55-1.93-2h3.52a1.89,1.89,0,0,0,1.33-.41,1.61,1.61,0,0,0,0-2.21,1.89,1.89,0,0,0-1.33-.4h-3.52l1.93-2Z"/><path class="cls-1" d="M1748.62,183V170.07h6.21a7.49,7.49,0,0,1,3.12.59,4.44,4.44,0,0,1,2.75,4.27,4.53,4.53,0,0,1-.72,2.57,4.61,4.61,0,0,1-2,1.64,7.83,7.83,0,0,1-3.12.57H1751l1.93-1.78v5Zm4.34-4.55-1.93-2h3.52a1.89,1.89,0,0,0,1.33-.41,1.61,1.61,0,0,0,0-2.21,1.89,1.89,0,0,0-1.33-.4H1751l1.93-2Zm3.37,4.55-3.16-4.7h4.6l3.2,4.7Z"/><path class="cls-1" d="M1762.34,183V170.07h4.34V183Z"/><path class="cls-1" d="M1775.45,183.25a8.12,8.12,0,0,1-2.87-.49,6.69,6.69,0,0,1-2.28-1.39,6.43,6.43,0,0,1-1.5-2.13,7.27,7.27,0,0,1,0-5.45,6.37,6.37,0,0,1,1.5-2.14,6.85,6.85,0,0,1,2.28-1.39,8.35,8.35,0,0,1,2.87-.49,8,8,0,0,1,3.36.67,6.3,6.3,0,0,1,2.42,1.91l-2.75,2.45a4.54,4.54,0,0,0-1.26-1.12,3.1,3.1,0,0,0-1.55-.39,3.26,3.26,0,0,0-1.24.22,2.66,2.66,0,0,0-.94.64,3,3,0,0,0-.62,1,3.75,3.75,0,0,0-.22,1.33,3.81,3.81,0,0,0,.22,1.34,2.91,2.91,0,0,0,.62,1,2.54,2.54,0,0,0,.94.64,3.26,3.26,0,0,0,1.24.22,3.1,3.1,0,0,0,1.55-.39,4.54,4.54,0,0,0,1.26-1.12l2.75,2.45a6.4,6.4,0,0,1-2.42,1.91A8,8,0,0,1,1775.45,183.25Z"/><path class="cls-1" d="M1786.75,179.68h6.45V183h-10.72V170.07H1793v3.27h-6.21Zm-.29-4.83h5.74V178h-5.74Z"/><path class="cls-3" d="M219.12,179.92V117.33h33.44q13,0,19.13,4.6t6.17,11.76a14.27,14.27,0,0,1-2.63,8.45,17.62,17.62,0,0,1-7.65,5.86,31.37,31.37,0,0,1-12.34,2.14l1.79-4.83a35,35,0,0,1,12.65,2.06,18.05,18.05,0,0,1,8.23,5.95,15.19,15.19,0,0,1,2.9,9.34,14.5,14.5,0,0,1-6.75,12.7q-6.75,4.56-19.71,4.56Zm20.74-14.76h12.7a8.93,8.93,0,0,0,5.23-1.25,4.73,4.73,0,0,0,0-7.33,9,9,0,0,0-5.23-1.25H238.43v-14H249.7c2.38,0,4.13-.4,5.23-1.21a4.46,4.46,0,0,0,0-6.93,9.29,9.29,0,0,0-5.23-1.16h-9.84Z"/><path class="cls-3" d="M318.19,181.35q-14.4,0-22.44-7.78t-8.05-21.82V117.33h21.1v33.8q0,7.16,2.59,10.14a9.67,9.67,0,0,0,14,0q2.53-3,2.54-10.14v-33.8h20.75v34.42q0,14-8.05,21.82T318.19,181.35Z"/><path class="cls-3" d="M374.43,179.92V152.47l4.83,12.6-28.44-47.74h22.27L392.31,150h-13l19.4-32.63h20.38l-28.25,47.74,4.65-12.6v27.45Z"/><path class="cls-3" d="M192.3,287.21V224.62h17.34l31.83,38.09h-8V224.62H254v62.59H236.65l-31.84-38.09h8.05v38.09Z"/><path class="cls-3" d="M297,288.64a40,40,0,0,1-14.08-2.41,33.19,33.19,0,0,1-11.23-6.84A31.47,31.47,0,0,1,264.32,269a33.7,33.7,0,0,1,0-26.15,31.47,31.47,0,0,1,7.37-10.37,33,33,0,0,1,11.23-6.84,42.29,42.29,0,0,1,28.2,0,33.1,33.1,0,0,1,11.18,6.84,31.5,31.5,0,0,1,7.38,10.37,33.7,33.7,0,0,1,0,26.15,31.5,31.5,0,0,1-7.38,10.42,33.26,33.26,0,0,1-11.18,6.84A39.9,39.9,0,0,1,297,288.64Zm0-17.08a14,14,0,0,0,5.5-1.07,13.36,13.36,0,0,0,4.47-3.08,14.06,14.06,0,0,0,3-4.92,20.55,20.55,0,0,0,0-13.15,14,14,0,0,0-3-4.91,13.38,13.38,0,0,0-4.47-3.09,14.67,14.67,0,0,0-11,0,13.28,13.28,0,0,0-4.47,3.09,14.19,14.19,0,0,0-3,4.91,20.74,20.74,0,0,0,0,13.15,14.23,14.23,0,0,0,3,4.92,13.26,13.26,0,0,0,4.47,3.08A13.94,13.94,0,0,0,297,271.56Z"/><path class="cls-3" d="M355.83,287.21l-20-62.59h21.73l16.18,52.84H362.8L380,224.62h19.4l16,52.84H404.92l16.9-52.84h20l-20,62.59H399.19l-13.05-43.27h6.08l-13.77,43.27Z"/><path class="cls-3" d="M104.36,398a11,11,0,0,1-8.07-2.91q-2.92-2.91-2.92-8.44V372.52H98v14c0,2.58.55,4.46,1.67,5.63a7.18,7.18,0,0,0,9.42,0c1.1-1.17,1.66-3.05,1.66-5.63v-14h4.59v14.15q0,5.54-2.92,8.44T104.36,398Z"/><path class="cls-3" d="M121.56,404.63V378.48h4.27V383l-.18,5.1.36,5.1v11.42Zm10.59-6.72a8.59,8.59,0,0,1-4.27-1.06,7.46,7.46,0,0,1-3-3.25,12.18,12.18,0,0,1-1.11-5.53,12.62,12.62,0,0,1,1.06-5.55,7.15,7.15,0,0,1,3-3.23,8.86,8.86,0,0,1,4.34-1.06,10.14,10.14,0,0,1,5,1.22,8.89,8.89,0,0,1,3.46,3.45,11.12,11.12,0,0,1,0,10.36,9,9,0,0,1-3.46,3.43A10.14,10.14,0,0,1,132.15,397.91Zm-.53-3.81a5.64,5.64,0,0,0,2.92-.75,5.45,5.45,0,0,0,2-2.12,7,7,0,0,0,0-6.34,5.34,5.34,0,0,0-2-2.08,6.05,6.05,0,0,0-5.8,0,5.3,5.3,0,0,0-2,2.08,7,7,0,0,0,0,6.34,5.41,5.41,0,0,0,2,2.12A5.62,5.62,0,0,0,131.62,394.1Z"/><path class="cls-3" d="M154.28,396.8a10.35,10.35,0,0,1-5-1.17,8.87,8.87,0,0,1-3.46-3.25,9.1,9.1,0,0,1-1.28-4.85,9.25,9.25,0,0,1,1.28-4.9,8.66,8.66,0,0,1,3.46-3.25,10.46,10.46,0,0,1,5-1.15,9.62,9.62,0,0,1,4.4,1,7.3,7.3,0,0,1,3.1,3,10.7,10.7,0,0,1,1.15,5.28,10.52,10.52,0,0,1-1.15,5.21,7.4,7.4,0,0,1-3.1,3.05A9.5,9.5,0,0,1,154.28,396.8Zm.57,8.08a19.46,19.46,0,0,1-5.19-.7,11.31,11.31,0,0,1-4.15-2.07l2-3.34a9.66,9.66,0,0,0,3.16,1.69,12.21,12.21,0,0,0,3.95.65,6.31,6.31,0,0,0,4.59-1.46,5.89,5.89,0,0,0,1.48-4.4v-3.41l.36-4.31-.15-4.34v-4.71h4.28v16.27q0,5.21-2.66,7.67C160.77,404.06,158.2,404.88,154.85,404.88ZM155,393a6.35,6.35,0,0,0,3-.7,5.14,5.14,0,0,0,2.06-1.94,5.84,5.84,0,0,0,0-5.69,5.07,5.07,0,0,0-2.06-1.91,7.07,7.07,0,0,0-6,0,5,5,0,0,0-2.09,1.91,5.91,5.91,0,0,0,0,5.69,5.09,5.09,0,0,0,2.09,1.94A6.39,6.39,0,0,0,155,393Z"/><path class="cls-3" d="M171.12,397.66V378.48h4.28v5.28l-.51-1.54a5.92,5.92,0,0,1,2.7-3,9.37,9.37,0,0,1,4.56-1v4.27l-.51-.05-.46,0a5.63,5.63,0,0,0-4.1,1.47,6.06,6.06,0,0,0-1.5,4.49v9.27Z"/><path class="cls-3" d="M192,397.91a8.9,8.9,0,0,1-3.77-.74,5.76,5.76,0,0,1-2.49-2,5.19,5.19,0,0,1-.88-3,5.56,5.56,0,0,1,.77-2.91,5.18,5.18,0,0,1,2.53-2,12.07,12.07,0,0,1,4.67-.76h5.57v3H193.1a4.68,4.68,0,0,0-3.07.74,2.4,2.4,0,0,0-.81,1.85,2.25,2.25,0,0,0,1,1.9,4.46,4.46,0,0,0,2.7.72,5.84,5.84,0,0,0,3-.75,4.48,4.48,0,0,0,1.92-2.23l.72,2.7a5.05,5.05,0,0,1-2.3,2.62A8.56,8.56,0,0,1,192,397.91Zm6-.25v-3.92l-.22-.79v-6.78a3.94,3.94,0,0,0-1.2-3.07,5.27,5.27,0,0,0-3.65-1.1,10.18,10.18,0,0,0-3.12.5,8.51,8.51,0,0,0-2.66,1.4l-1.76-3.26a11.39,11.39,0,0,1,3.7-1.8,15.73,15.73,0,0,1,4.42-.61,9.41,9.41,0,0,1,6.46,2q2.26,2,2.26,6.18v11.24Z"/><path class="cls-3" d="M216.05,397.91a10.14,10.14,0,0,1-5-1.22,8.8,8.8,0,0,1-3.47-3.43,11.28,11.28,0,0,1,0-10.36,8.72,8.72,0,0,1,3.47-3.45,10.14,10.14,0,0,1,5-1.22,8.69,8.69,0,0,1,4.31,1.06,7.46,7.46,0,0,1,3,3.23,12.18,12.18,0,0,1,1.11,5.55,12.47,12.47,0,0,1-1.08,5.53,7.18,7.18,0,0,1-3,3.25A8.79,8.79,0,0,1,216.05,397.91Zm.54-3.81a5.67,5.67,0,0,0,2.89-.73,5.51,5.51,0,0,0,2.05-2.12,6.45,6.45,0,0,0,.77-3.18,6.35,6.35,0,0,0-.77-3.18,5.53,5.53,0,0,0-2.05-2.08,6,6,0,0,0-5.78,0,5.53,5.53,0,0,0-2,2.08,6.35,6.35,0,0,0-.77,3.18,6.45,6.45,0,0,0,.77,3.18,5.51,5.51,0,0,0,2,2.12A5.67,5.67,0,0,0,216.59,394.1Zm5.85,3.56v-4.53l.11-5.1-.36-5.1V371h4.53v26.65Z"/><path class="cls-3" d="M241.59,397.91a11.7,11.7,0,0,1-5.59-1.27,9.37,9.37,0,0,1-3.7-3.49,9.78,9.78,0,0,1-1.31-5.08,10,10,0,0,1,1.28-5.08,9.29,9.29,0,0,1,3.52-3.49,10.14,10.14,0,0,1,5.11-1.27,9.94,9.94,0,0,1,5,1.24,8.87,8.87,0,0,1,3.44,3.46,10.58,10.58,0,0,1,1.26,5.28c0,.17,0,.38,0,.63s0,.48-.05.67h-16v-3h13.61l-1.8.93a5.53,5.53,0,0,0-.66-2.89,5.08,5.08,0,0,0-1.92-2,5.79,5.79,0,0,0-2.88-.7,6,6,0,0,0-2.89.7,4.7,4.7,0,0,0-1.95,2,6.21,6.21,0,0,0-.69,3v.72a5.94,5.94,0,0,0,.78,3,5.28,5.28,0,0,0,2.2,2.06,7.24,7.24,0,0,0,3.34.74,7.47,7.47,0,0,0,2.91-.54,6.91,6.91,0,0,0,2.3-1.58l2.44,2.8a8.55,8.55,0,0,1-3.28,2.3A11.84,11.84,0,0,1,241.59,397.91Z"/><path class="cls-3" d="M271.4,397.66v-10l1.07,2.84-11-18h5l8.84,14.54h-2.8l8.8-14.54h4.59l-10.91,18,1-2.84v10Z"/><path class="cls-3" d="M297.15,397.91a10.66,10.66,0,0,1-5.23-1.27,9.45,9.45,0,0,1-3.64-3.51,9.77,9.77,0,0,1,3.62-13.63,10.63,10.63,0,0,1,5.25-1.27,10.78,10.78,0,0,1,5.29,1.27,9.4,9.4,0,0,1,3.63,3.47,10.54,10.54,0,0,1,0,10.18,9.4,9.4,0,0,1-3.64,3.49A10.85,10.85,0,0,1,297.15,397.91Zm0-3.81a5.83,5.83,0,0,0,2.94-.73,5.19,5.19,0,0,0,2-2.12,6.66,6.66,0,0,0,.74-3.18,6.55,6.55,0,0,0-.74-3.18,5.21,5.21,0,0,0-2-2.08,6.09,6.09,0,0,0-5.82,0,5.3,5.3,0,0,0-2,2.08,6.34,6.34,0,0,0-.76,3.18,6.45,6.45,0,0,0,.76,3.18,5.28,5.28,0,0,0,2,2.12A5.71,5.71,0,0,0,297.15,394.1Z"/><path class="cls-3" d="M319.81,397.91a9.66,9.66,0,0,1-4.31-.91,6.73,6.73,0,0,1-2.93-2.81,9.66,9.66,0,0,1-1.06-4.76V378.48H316v10.38a5.43,5.43,0,0,0,1.18,3.82,4.26,4.26,0,0,0,3.31,1.28,5.69,5.69,0,0,0,2.76-.65,4.31,4.31,0,0,0,1.83-1.94,7.08,7.08,0,0,0,.65-3.19v-9.7h4.49v19.18H326v-5.21l.75,1.62a6.76,6.76,0,0,1-2.84,2.84A8.48,8.48,0,0,1,319.81,397.91Z"/><path class="cls-3" d="M336.19,397.66V378.48h4.27v5.28l-.5-1.54a5.9,5.9,0,0,1,2.69-3,9.43,9.43,0,0,1,4.56-1v4.27l-.5-.05-.47,0a5.6,5.6,0,0,0-4.09,1.47,6,6,0,0,0-1.51,4.49v9.27Z"/><path class="cls-3" d="M375.3,398a10.28,10.28,0,0,1-4.4-.94,8.24,8.24,0,0,1-3.32-2.72l2.65-3.17a7.68,7.68,0,0,0,2.28,2.16,5.4,5.4,0,0,0,2.75.72q3.89,0,3.88-4.64v-13H370.2v-4h13.57v16.66q0,4.45-2.15,6.65T375.3,398Z"/><path class="cls-3" d="M398.53,397.91a10.62,10.62,0,0,1-5.22-1.27,9.48,9.48,0,0,1-3.65-3.51,9.76,9.76,0,0,1,3.63-13.63,10.61,10.61,0,0,1,5.24-1.27,10.79,10.79,0,0,1,5.3,1.27,9.47,9.47,0,0,1,3.63,3.47,10.54,10.54,0,0,1,0,10.18,9.43,9.43,0,0,1-3.65,3.49A10.8,10.8,0,0,1,398.53,397.91Zm0-3.81a5.87,5.87,0,0,0,3-.73,5.19,5.19,0,0,0,2-2.12,6.66,6.66,0,0,0,.73-3.18,6.55,6.55,0,0,0-.73-3.18,5.21,5.21,0,0,0-2-2.08,6.09,6.09,0,0,0-5.82,0,5.39,5.39,0,0,0-2.05,2.08,6.45,6.45,0,0,0-.75,3.18,6.55,6.55,0,0,0,.75,3.18,5.37,5.37,0,0,0,2.05,2.12A5.7,5.7,0,0,0,398.53,394.1Z"/><path class="cls-3" d="M421.2,397.91a9.66,9.66,0,0,1-4.31-.91,6.68,6.68,0,0,1-2.93-2.81,9.56,9.56,0,0,1-1.06-4.76V378.48h4.52v10.38a5.43,5.43,0,0,0,1.19,3.82,4.25,4.25,0,0,0,3.3,1.28,5.7,5.7,0,0,0,2.77-.65,4.31,4.31,0,0,0,1.83-1.94,7.08,7.08,0,0,0,.65-3.19v-9.7h4.49v19.18h-4.28v-5.21l.76,1.62a6.82,6.82,0,0,1-2.84,2.84A8.51,8.51,0,0,1,421.2,397.91Z"/><path class="cls-3" d="M437.57,397.66V378.48h4.28v5.28l-.51-1.54a5.92,5.92,0,0,1,2.7-3,9.37,9.37,0,0,1,4.56-1v4.27l-.5-.05-.47,0a5.64,5.64,0,0,0-4.1,1.47,6.06,6.06,0,0,0-1.5,4.49v9.27Z"/><path class="cls-3" d="M463.5,378.23a9,9,0,0,1,4.12.9,6.71,6.71,0,0,1,2.83,2.76,9.58,9.58,0,0,1,1.06,4.78v11H467V387.24a5.36,5.36,0,0,0-1.18-3.8,4.42,4.42,0,0,0-3.38-1.26,5.9,5.9,0,0,0-2.8.65,4.49,4.49,0,0,0-1.89,1.92,7,7,0,0,0-.66,3.21v9.7h-4.45V378.48h4.27v5.21l-.75-1.62a6.72,6.72,0,0,1,2.89-2.84A9.42,9.42,0,0,1,463.5,378.23Z"/><path class="cls-3" d="M486.24,397.91a11.73,11.73,0,0,1-5.59-1.27,9.37,9.37,0,0,1-3.7-3.49,9.78,9.78,0,0,1-1.31-5.08,10,10,0,0,1,1.28-5.08,9.29,9.29,0,0,1,3.52-3.49,10.16,10.16,0,0,1,5.12-1.27,9.93,9.93,0,0,1,5,1.24,9,9,0,0,1,3.45,3.46,10.68,10.68,0,0,1,1.25,5.28c0,.17,0,.38,0,.63s0,.48-.05.67h-16v-3h13.61l-1.8.93a5.53,5.53,0,0,0-.66-2.89,5.08,5.08,0,0,0-1.92-2,5.75,5.75,0,0,0-2.87-.7,6,6,0,0,0-2.9.7,4.7,4.7,0,0,0-2,2,6.21,6.21,0,0,0-.69,3v.72a5.94,5.94,0,0,0,.78,3A5.25,5.25,0,0,0,483,393.4a7.21,7.21,0,0,0,3.34.74,7.46,7.46,0,0,0,2.9-.54,6.81,6.81,0,0,0,2.3-1.58l2.45,2.8a8.67,8.67,0,0,1-3.29,2.3A11.84,11.84,0,0,1,486.24,397.91Z"/><path class="cls-3" d="M501.18,404.88a9,9,0,0,1-2.84-.47,6.31,6.31,0,0,1-2.3-1.29l1.76-3.27a6.26,6.26,0,0,0,1.53.93,4.46,4.46,0,0,0,1.78.36,3,3,0,0,0,2-.61,5.55,5.55,0,0,0,1.4-2.08l1.08-2.44.43-.58,7.22-16.95h4.31l-9,20.76a12.47,12.47,0,0,1-2,3.36,6.44,6.44,0,0,1-2.44,1.76A8.24,8.24,0,0,1,501.18,404.88Zm3.91-6.54-8.65-19.86h4.63L508.15,395Z"/><path class="cls-3" d="M521.79,397.91a2.91,2.91,0,0,1-3-3,2.8,2.8,0,0,1,.86-2.13,3,3,0,0,1,2.12-.81,2.89,2.89,0,0,1,2.05.81,2.77,2.77,0,0,1,.86,2.13,2.91,2.91,0,0,1-.86,2.18A2.83,2.83,0,0,1,521.79,397.91Z"/><path class="cls-3" d="M104.36,441.12a11,11,0,0,1-8.07-2.91q-2.92-2.91-2.92-8.44V415.62H98v14c0,2.59.55,4.47,1.67,5.64a7.18,7.18,0,0,0,9.42,0c1.1-1.17,1.66-3.05,1.66-5.64v-14h4.59v14.15q0,5.53-2.92,8.44T104.36,441.12Z"/><path class="cls-3" d="M132.41,421.33a9,9,0,0,1,4.11.9,6.73,6.73,0,0,1,2.84,2.76,9.69,9.69,0,0,1,1.06,4.78v11h-4.49V430.34a5.34,5.34,0,0,0-1.19-3.8,4.42,4.42,0,0,0-3.38-1.26,5.93,5.93,0,0,0-2.8.64,4.49,4.49,0,0,0-1.88,1.93,6.82,6.82,0,0,0-.67,3.21v9.7h-4.45V421.58h4.27v5.21l-.75-1.62a6.72,6.72,0,0,1,2.89-2.84A9.44,9.44,0,0,1,132.41,421.33Z"/><path class="cls-3" d="M146.16,440.76V414.11h4.46v26.65Z"/><path class="cls-3" d="M165.56,441a11.68,11.68,0,0,1-5.59-1.28,9.34,9.34,0,0,1-3.7-3.48,9.8,9.8,0,0,1-1.31-5.08,10,10,0,0,1,1.28-5.08,9.15,9.15,0,0,1,3.52-3.49,10.14,10.14,0,0,1,5.11-1.27,10,10,0,0,1,5,1.24,8.94,8.94,0,0,1,3.44,3.46,10.58,10.58,0,0,1,1.26,5.28c0,.17,0,.38,0,.63s0,.47-.05.67h-16v-3h13.61l-1.8.94a5.63,5.63,0,0,0-.66-2.89,5.08,5.08,0,0,0-1.92-2,5.69,5.69,0,0,0-2.88-.7,5.89,5.89,0,0,0-2.89.7,4.82,4.82,0,0,0-2,2,6.4,6.4,0,0,0-.68,3v.71a6,6,0,0,0,.77,3.06,5.37,5.37,0,0,0,2.21,2.06,7.24,7.24,0,0,0,3.34.74,7.47,7.47,0,0,0,2.91-.54,6.91,6.91,0,0,0,2.3-1.58l2.44,2.8a8.55,8.55,0,0,1-3.28,2.3A11.84,11.84,0,0,1,165.56,441Z"/><path class="cls-3" d="M184.66,441a9.06,9.06,0,0,1-3.77-.74,5.85,5.85,0,0,1-2.5-2,5.29,5.29,0,0,1-.88-3,5.56,5.56,0,0,1,.78-2.91,5.18,5.18,0,0,1,2.53-2,11.88,11.88,0,0,1,4.67-.76h5.56v3h-5.24a4.68,4.68,0,0,0-3.07.74,2.4,2.4,0,0,0-.81,1.85,2.27,2.27,0,0,0,1,1.9,4.46,4.46,0,0,0,2.7.72,5.87,5.87,0,0,0,3-.75,4.53,4.53,0,0,0,1.92-2.23l.72,2.69a5,5,0,0,1-2.3,2.63A8.56,8.56,0,0,1,184.66,441Zm6-.25v-3.92l-.22-.79v-6.79a4,4,0,0,0-1.2-3.07,5.29,5.29,0,0,0-3.65-1.09,10.18,10.18,0,0,0-3.12.5,8.31,8.31,0,0,0-2.66,1.4l-1.76-3.27a11.37,11.37,0,0,1,3.7-1.79,15.73,15.73,0,0,1,4.42-.61,9.41,9.41,0,0,1,6.46,2q2.27,2,2.26,6.18v11.24Z"/><path class="cls-3" d="M206.61,441a16.72,16.72,0,0,1-4.64-.63,12.49,12.49,0,0,1-3.52-1.53l1.73-3.41a11.9,11.9,0,0,0,3.09,1.35,12.78,12.78,0,0,0,3.62.52,6.3,6.3,0,0,0,3-.56,1.71,1.71,0,0,0,.95-1.52,1.36,1.36,0,0,0-.65-1.21,5,5,0,0,0-1.69-.62c-.69-.15-1.46-.28-2.31-.4s-1.7-.28-2.55-.48a9.33,9.33,0,0,1-2.32-.9,4.89,4.89,0,0,1-1.69-1.6,5.58,5.58,0,0,1,.4-5.84,6.78,6.78,0,0,1,2.93-2.1,12,12,0,0,1,4.47-.75,17.54,17.54,0,0,1,3.89.45,11.42,11.42,0,0,1,3.33,1.24l-1.76,3.41a9.32,9.32,0,0,0-2.73-1.1,13.26,13.26,0,0,0-2.77-.3,6,6,0,0,0-3,.59,1.73,1.73,0,0,0-1,1.53,1.44,1.44,0,0,0,.65,1.29,4.83,4.83,0,0,0,1.68.66c.7.16,1.47.3,2.32.43s1.69.3,2.53.51a10,10,0,0,1,2.32.86,4.47,4.47,0,0,1,1.7,1.56,4.71,4.71,0,0,1,.65,2.62,4.86,4.86,0,0,1-1.06,3.15,6.88,6.88,0,0,1-3,2A12.92,12.92,0,0,1,206.61,441Z"/><path class="cls-3" d="M230,421.33a9,9,0,0,1,4.11.9A6.62,6.62,0,0,1,237,425a9.58,9.58,0,0,1,1.06,4.78v11h-4.49V430.34a5.34,5.34,0,0,0-1.18-3.8,4.42,4.42,0,0,0-3.38-1.26,5.9,5.9,0,0,0-2.8.64,4.57,4.57,0,0,0-1.89,1.93,7,7,0,0,0-.66,3.21v9.7h-4.45V414.11h4.45v12.68l-.93-1.62a6.66,6.66,0,0,1,2.89-2.84A9.42,9.42,0,0,1,230,421.33Z"/><path class="cls-3" d="M251.07,425.31v-3.59h12.78v3.59Zm9.77,15.7a6.87,6.87,0,0,1-4.89-1.63,6.3,6.3,0,0,1-1.72-4.8V417.34h4.45v17.1a3,3,0,0,0,.72,2.12,2.65,2.65,0,0,0,2,.75,3.71,3.71,0,0,0,2.44-.79l1.3,3.2a5.72,5.72,0,0,1-2,1A8.73,8.73,0,0,1,260.84,441Z"/><path class="cls-3" d="M279.73,421.33a9,9,0,0,1,4.11.9,6.68,6.68,0,0,1,2.84,2.76,9.69,9.69,0,0,1,1.06,4.78v11h-4.49V430.34a5.34,5.34,0,0,0-1.19-3.8,4.4,4.4,0,0,0-3.37-1.26,5.87,5.87,0,0,0-2.8.64,4.46,4.46,0,0,0-1.89,1.93,7,7,0,0,0-.66,3.21v9.7h-4.46V414.11h4.46v12.68l-.94-1.62a6.72,6.72,0,0,1,2.89-2.84A9.44,9.44,0,0,1,279.73,421.33Z"/><path class="cls-3" d="M302.46,441a11.67,11.67,0,0,1-5.58-1.28,9.28,9.28,0,0,1-3.7-3.48,9.71,9.71,0,0,1-1.31-5.08,10,10,0,0,1,1.27-5.08,9.29,9.29,0,0,1,3.52-3.49,10.18,10.18,0,0,1,5.12-1.27,9.91,9.91,0,0,1,5,1.24,9,9,0,0,1,3.45,3.46,10.58,10.58,0,0,1,1.26,5.28c0,.17,0,.38,0,.63s0,.47,0,.67h-16v-3H309l-1.8.94a5.73,5.73,0,0,0-.66-2.89,5,5,0,0,0-1.93-2,5.63,5.63,0,0,0-2.87-.7,5.86,5.86,0,0,0-2.89.7,4.82,4.82,0,0,0-2,2,6.4,6.4,0,0,0-.68,3v.71a6,6,0,0,0,.77,3.06,5.31,5.31,0,0,0,2.21,2.06,7.24,7.24,0,0,0,3.34.74,7.47,7.47,0,0,0,2.91-.54,6.91,6.91,0,0,0,2.3-1.58l2.44,2.8a8.59,8.59,0,0,1-3.29,2.3A11.77,11.77,0,0,1,302.46,441Z"/><path class="cls-3" d="M330.76,440.76h-4.67V415.62h18.36v3.95H330.76Zm-.36-13.54h12.5v3.88H330.4Z"/><path class="cls-3" d="M356.66,441a9.66,9.66,0,0,1-4.31-.92,6.65,6.65,0,0,1-2.93-2.8,9.56,9.56,0,0,1-1.06-4.76V421.58h4.53V432a5.43,5.43,0,0,0,1.18,3.82,4.29,4.29,0,0,0,3.31,1.28,5.69,5.69,0,0,0,2.76-.65,4.36,4.36,0,0,0,1.83-1.94,7.08,7.08,0,0,0,.65-3.19v-9.7h4.49v19.18h-4.27v-5.21l.75,1.62a6.74,6.74,0,0,1-2.84,2.83A8.49,8.49,0,0,1,356.66,441Z"/><path class="cls-3" d="M370.45,425.31v-3.59h12.78v3.59Zm9.77,15.7a6.87,6.87,0,0,1-4.89-1.63,6.3,6.3,0,0,1-1.72-4.8V417.34h4.45v17.1a3,3,0,0,0,.72,2.12,2.65,2.65,0,0,0,2,.75,3.71,3.71,0,0,0,2.44-.79l1.3,3.2a5.72,5.72,0,0,1-2,1A8.73,8.73,0,0,1,380.22,441Z"/><path class="cls-3" d="M396.34,441a9.72,9.72,0,0,1-4.31-.92,6.63,6.63,0,0,1-2.92-2.8,9.56,9.56,0,0,1-1.06-4.76V421.58h4.52V432a5.43,5.43,0,0,0,1.19,3.82,4.29,4.29,0,0,0,3.3,1.28,5.7,5.7,0,0,0,2.77-.65,4.36,4.36,0,0,0,1.83-1.94,7.08,7.08,0,0,0,.65-3.19v-9.7h4.49v19.18h-4.28v-5.21l.76,1.62a6.8,6.8,0,0,1-2.84,2.83A8.53,8.53,0,0,1,396.34,441Z"/><path class="cls-3" d="M412.72,440.76V421.58H417v5.28l-.51-1.55a5.94,5.94,0,0,1,2.7-3,9.37,9.37,0,0,1,4.56-1v4.27l-.51-.05-.46,0a5.63,5.63,0,0,0-4.1,1.47,6,6,0,0,0-1.51,4.49v9.27Z"/><path class="cls-3" d="M436.78,441a11.67,11.67,0,0,1-5.58-1.28,9.28,9.28,0,0,1-3.7-3.48,9.8,9.8,0,0,1-1.31-5.08,10,10,0,0,1,1.27-5.08A9.29,9.29,0,0,1,431,422.6a10.21,10.21,0,0,1,5.12-1.27,9.91,9.91,0,0,1,5,1.24,9,9,0,0,1,3.45,3.46,10.58,10.58,0,0,1,1.26,5.28c0,.17,0,.38,0,.63s0,.47,0,.67h-16v-3h13.61l-1.8.94a5.73,5.73,0,0,0-.66-2.89,5.08,5.08,0,0,0-1.92-2,5.69,5.69,0,0,0-2.88-.7,5.86,5.86,0,0,0-2.89.7,4.82,4.82,0,0,0-2,2,6.4,6.4,0,0,0-.68,3v.71a6,6,0,0,0,.77,3.06,5.31,5.31,0,0,0,2.21,2.06,7.24,7.24,0,0,0,3.34.74,7.47,7.47,0,0,0,2.91-.54,6.91,6.91,0,0,0,2.3-1.58l2.44,2.8a8.55,8.55,0,0,1-3.28,2.3A11.85,11.85,0,0,1,436.78,441Z"/><path class="cls-3" d="M468.6,441a10.65,10.65,0,0,1-5.22-1.28,9.45,9.45,0,0,1-3.65-3.5,9.76,9.76,0,0,1,3.63-13.63,10.61,10.61,0,0,1,5.24-1.27,10.79,10.79,0,0,1,5.3,1.27,9.4,9.4,0,0,1,3.63,3.47,10.54,10.54,0,0,1,0,10.18,9.34,9.34,0,0,1-3.65,3.48A10.8,10.8,0,0,1,468.6,441Zm0-3.81a5.84,5.84,0,0,0,2.95-.73,5.19,5.19,0,0,0,2-2.12,6.66,6.66,0,0,0,.74-3.18,6.55,6.55,0,0,0-.74-3.18,5.21,5.21,0,0,0-2-2.08,6.09,6.09,0,0,0-5.82,0,5.39,5.39,0,0,0-2.05,2.08,6.45,6.45,0,0,0-.75,3.18,6.55,6.55,0,0,0,.75,3.18,5.37,5.37,0,0,0,2.05,2.12A5.7,5.7,0,0,0,468.6,437.2Z"/><path class="cls-3" d="M480.6,425.31v-3.59h12.79v3.59Zm3.16,15.45V420.54a6.64,6.64,0,0,1,1.78-4.87,6.78,6.78,0,0,1,5.08-1.81,9.64,9.64,0,0,1,2.25.25,4.8,4.8,0,0,1,1.77.79l-1.25,3.34a4.32,4.32,0,0,0-1.12-.54,4.26,4.26,0,0,0-1.33-.22,2.75,2.75,0,0,0-2.12.78,3.26,3.26,0,0,0-.71,2.28v2.22l.1,2v16Z"/><path class="cls-3" d="M152.84,483.86V458.71h11a15.72,15.72,0,0,1,7.13,1.57,11.63,11.63,0,0,1,4.83,4.4,13.54,13.54,0,0,1,0,13.21,11.57,11.57,0,0,1-4.83,4.4,15.72,15.72,0,0,1-7.13,1.57Zm4.67-3.95h6.07a10.45,10.45,0,0,0,4.9-1.08,8,8,0,0,0,3.23-3,9.41,9.41,0,0,0,0-9.09,8.09,8.09,0,0,0-3.23-3,10.45,10.45,0,0,0-4.9-1.07h-6.07Z"/><path class="cls-3" d="M182.11,483.86V464.68h4.28V470l-.51-1.55a5.94,5.94,0,0,1,2.7-3,9.37,9.37,0,0,1,4.56-1v4.27l-.51-.05a3.7,3.7,0,0,0-.46,0,5.63,5.63,0,0,0-4.1,1.47,6,6,0,0,0-1.51,4.49v9.27Z"/><path class="cls-3" d="M199.42,461.52a2.85,2.85,0,0,1-2.06-.79,2.62,2.62,0,0,1-.81-1.94,2.53,2.53,0,0,1,.81-1.87,2.8,2.8,0,0,1,2.06-.79,3,3,0,0,1,2.07.74,2.42,2.42,0,0,1,.81,1.88,2.73,2.73,0,0,1-.79,2A2.8,2.8,0,0,1,199.42,461.52Zm-2.22,22.34V464.68h4.45v19.18Z"/><path class="cls-3" d="M212.67,483.86l-8.22-19.18h4.63l7.11,16.91H213.9l7.32-16.91h4.31l-8.22,19.18Z"/><path class="cls-3" d="M230.6,461.52a2.87,2.87,0,0,1-2.07-.79,2.62,2.62,0,0,1-.81-1.94,2.53,2.53,0,0,1,.81-1.87,2.83,2.83,0,0,1,2.07-.79,3,3,0,0,1,2.06.74,2.42,2.42,0,0,1,.81,1.88,2.69,2.69,0,0,1-.79,2A2.78,2.78,0,0,1,230.6,461.52Zm-2.23,22.34V464.68h4.45v19.18Z"/><path class="cls-3" d="M249.63,464.43a9,9,0,0,1,4.11.89,6.7,6.7,0,0,1,2.84,2.77,9.56,9.56,0,0,1,1.06,4.78v11h-4.49V473.44a5.34,5.34,0,0,0-1.19-3.81,4.39,4.39,0,0,0-3.37-1.25,5.9,5.9,0,0,0-2.8.64,4.38,4.38,0,0,0-1.89,1.92,7,7,0,0,0-.66,3.22v9.7h-4.46V464.68h4.28v5.2l-.76-1.61a6.72,6.72,0,0,1,2.89-2.84A9.46,9.46,0,0,1,249.63,464.43Z"/><path class="cls-3" d="M271.47,483a10.46,10.46,0,0,1-5-1.16,9,9,0,0,1-3.47-3.25,9.12,9.12,0,0,1-1.27-4.85,9.24,9.24,0,0,1,1.27-4.9,8.71,8.71,0,0,1,3.47-3.26,10.57,10.57,0,0,1,5-1.14,9.65,9.65,0,0,1,4.4,1,7.26,7.26,0,0,1,3.1,3,12.54,12.54,0,0,1,0,10.49,7.4,7.4,0,0,1-3.1,3.05A9.53,9.53,0,0,1,271.47,483Zm.57,8.08a19.06,19.06,0,0,1-5.19-.7,11.07,11.07,0,0,1-4.15-2.06l2-3.34a10,10,0,0,0,3.17,1.69,12.16,12.16,0,0,0,3.95.64,6.3,6.3,0,0,0,4.59-1.45,6,6,0,0,0,1.48-4.4V478l.35-4.31-.14-4.35v-4.7h4.27V481q0,5.21-2.65,7.66C278,490.25,275.39,491.07,272,491.07Zm.11-11.88a6.49,6.49,0,0,0,3-.7,5.21,5.21,0,0,0,2.06-1.94,5.44,5.44,0,0,0,.74-2.82,5.51,5.51,0,0,0-.74-2.88,5.12,5.12,0,0,0-2.06-1.9,6.61,6.61,0,0,0-3-.68,6.7,6.7,0,0,0-3,.68,5.11,5.11,0,0,0-2.08,1.9,5.51,5.51,0,0,0-.74,2.88,5.44,5.44,0,0,0,.74,2.82,5.2,5.2,0,0,0,2.08,1.94A6.58,6.58,0,0,0,272.15,479.19Z"/><path class="cls-3" d="M303.68,483.86V462.67h-8.33v-4h21.33v4h-8.33v21.19Z"/><path class="cls-3" d="M328.39,484.11a10.62,10.62,0,0,1-5.22-1.28,9.45,9.45,0,0,1-3.65-3.5,9.76,9.76,0,0,1,3.63-13.63,10.61,10.61,0,0,1,5.24-1.27,10.82,10.82,0,0,1,5.3,1.27,9.54,9.54,0,0,1,3.63,3.47,10.54,10.54,0,0,1,0,10.18,9.41,9.41,0,0,1-3.65,3.48A10.86,10.86,0,0,1,328.39,484.11Zm0-3.81a5.9,5.9,0,0,0,2.95-.74,5.19,5.19,0,0,0,2-2.12,6.65,6.65,0,0,0,.73-3.17,6.52,6.52,0,0,0-.73-3.18,5.37,5.37,0,0,0-2-2.09,6.17,6.17,0,0,0-5.82,0,5.42,5.42,0,0,0-2,2.09,6.42,6.42,0,0,0-.75,3.18,6.54,6.54,0,0,0,.75,3.17,5.24,5.24,0,0,0,2,2.12A5.71,5.71,0,0,0,328.39,480.3Z"/><path class="cls-3" d="M351.05,484.11a10.14,10.14,0,0,1-5-1.22,8.94,8.94,0,0,1-3.47-3.43,11.38,11.38,0,0,1,0-10.37,8.83,8.83,0,0,1,3.47-3.44,10,10,0,0,1,5-1.22,8.66,8.66,0,0,1,4.31,1.06,7.41,7.41,0,0,1,3,3.23,12.18,12.18,0,0,1,1.11,5.55,12.64,12.64,0,0,1-1.07,5.53,7.31,7.31,0,0,1-3,3.25A8.87,8.87,0,0,1,351.05,484.11Zm.54-3.81a5.68,5.68,0,0,0,2.89-.74,5.37,5.37,0,0,0,2-2.12,6.44,6.44,0,0,0,.77-3.17,6.32,6.32,0,0,0-.77-3.18,5.56,5.56,0,0,0-2-2.09,5.68,5.68,0,0,0-7.83,2.09,6.32,6.32,0,0,0-.77,3.18,6.44,6.44,0,0,0,.77,3.17,5.44,5.44,0,0,0,2.05,2.12A5.68,5.68,0,0,0,351.59,480.3Zm5.86,3.56v-4.53l.1-5.1-.36-5.1V457.21h4.53v26.65Z"/><path class="cls-3" d="M373.36,484.11a9.07,9.07,0,0,1-3.78-.74,5.83,5.83,0,0,1-2.49-2.05,5.15,5.15,0,0,1-.88-3,5.6,5.6,0,0,1,.77-2.91,5.3,5.3,0,0,1,2.53-2.05,12.12,12.12,0,0,1,4.67-.75h5.57v3h-5.24a4.66,4.66,0,0,0-3.07.74,2.38,2.38,0,0,0-.81,1.85,2.24,2.24,0,0,0,1,1.9,4.41,4.41,0,0,0,2.69.72,5.75,5.75,0,0,0,3-.76,4.37,4.37,0,0,0,1.92-2.22l.72,2.69a4.94,4.94,0,0,1-2.3,2.62A8.44,8.44,0,0,1,373.36,484.11Zm6-.25v-3.92l-.22-.79v-6.79a4,4,0,0,0-1.2-3.07,5.26,5.26,0,0,0-3.64-1.09,9.9,9.9,0,0,0-3.13.5,8.41,8.41,0,0,0-2.66,1.4l-1.76-3.27a11.27,11.27,0,0,1,3.7-1.79,15.83,15.83,0,0,1,4.42-.61,9.44,9.44,0,0,1,6.47,2c1.5,1.34,2.26,3.4,2.26,6.17v11.25Z"/><path class="cls-3" d="M391,491.07a8.92,8.92,0,0,1-2.83-.46,6.1,6.1,0,0,1-2.3-1.3l1.76-3.26a6,6,0,0,0,1.52.93,4.53,4.53,0,0,0,1.78.36,3,3,0,0,0,2-.61,5.55,5.55,0,0,0,1.4-2.08l1.08-2.45.43-.57L403,464.68h4.31l-9,20.76a12.25,12.25,0,0,1-2,3.35,6.16,6.16,0,0,1-2.44,1.76A8,8,0,0,1,391,491.07Zm3.92-6.53-8.66-19.86h4.64l7.07,16.55Z"/><path class="cls-3" d="M412.18,484.11a2.82,2.82,0,0,1-2.08-.83,2.7,2.7,0,0,1-.83-2,2.64,2.64,0,0,1,.83-2,2.84,2.84,0,0,1,2.08-.81,2.74,2.74,0,0,1,2.84,2.77,2.78,2.78,0,0,1-.79,2A2.72,2.72,0,0,1,412.18,484.11Zm-1.8-8.59-.86-16.81h5.32l-.94,16.81Z"/><path class="cls-3" d="M689.65,128.81l-5.74-17.47h4.19l5,15.48H691l5.19-15.48h3.75l5,15.48h-2L708,111.34h3.86l-5.74,17.47H701.8l-4.44-13.57h1.15L694,128.81Z"/><path class="cls-3" d="M718.67,128.81l-5.74-17.47h4.19l5,15.48H720l5.19-15.48h3.75l5,15.48h-2L737,111.34h3.86l-5.74,17.47h-4.29l-4.44-13.57h1.15L723,128.81Z"/><path class="cls-3" d="M747.69,128.81,742,111.34h4.19l5,15.48H749l5.19-15.48H758l5,15.48h-2L766,111.34h3.87l-5.74,17.47h-4.3l-4.44-13.57h1.15L752,128.81Z"/><path class="cls-3" d="M773.69,129a2.39,2.39,0,0,1-1.71-.69,2.3,2.3,0,0,1-.71-1.73,2.34,2.34,0,0,1,.71-1.77,2.41,2.41,0,0,1,1.71-.67,2.37,2.37,0,0,1,1.72.67,2.34,2.34,0,0,1,.7,1.77,2.29,2.29,0,0,1-.7,1.73A2.34,2.34,0,0,1,773.69,129Z"/><path class="cls-3" d="M779,128.81V111.34h3.35l10.3,12.58h-1.62V111.34h4v17.47h-3.34L781.4,116.23H783v12.58Z"/><path class="cls-3" d="M799.19,128.81V111.34h7.94a11.14,11.14,0,0,1,5,1.09,8.33,8.33,0,0,1,3.39,3,9.3,9.3,0,0,1,0,9.21,8.35,8.35,0,0,1-3.39,3,11.14,11.14,0,0,1-5,1.08Zm4.07-3.29h3.67a6.57,6.57,0,0,0,3-.66,4.82,4.82,0,0,0,2-1.9,6.24,6.24,0,0,0,0-5.78,4.84,4.84,0,0,0-2-1.88,6.57,6.57,0,0,0-3-.66h-3.67Z"/><path class="cls-3" d="M828.29,129.11a10.54,10.54,0,0,1-3.82-.67,9.15,9.15,0,0,1-3-1.9,8.38,8.38,0,0,1-2-2.87,9.48,9.48,0,0,1,0-7.2,8.53,8.53,0,0,1,2-2.86,9.24,9.24,0,0,1,3-1.89,10.41,10.41,0,0,1,3.81-.68,10.61,10.61,0,0,1,3.8.67,8.9,8.9,0,0,1,3,1.88,8.47,8.47,0,0,1,2,2.87,9.53,9.53,0,0,1,0,7.22,8.45,8.45,0,0,1-2,2.89,9.06,9.06,0,0,1-3,1.88A10.57,10.57,0,0,1,828.29,129.11Zm0-3.42a5.39,5.39,0,0,0,2.15-.41,5.13,5.13,0,0,0,1.74-1.17,5.55,5.55,0,0,0,1.16-1.77,6.43,6.43,0,0,0,0-4.52,5.55,5.55,0,0,0-1.16-1.77,5.13,5.13,0,0,0-1.74-1.17,5.39,5.39,0,0,0-2.15-.42,5.57,5.57,0,0,0-2.18.42,5,5,0,0,0-1.73,1.17,5.69,5.69,0,0,0-1.15,1.77,6.43,6.43,0,0,0,0,4.52,5.69,5.69,0,0,0,1.15,1.77,5,5,0,0,0,1.73,1.17A5.57,5.57,0,0,0,828.27,125.69Z"/><path class="cls-3" d="M849.23,129.11a10.5,10.5,0,0,1-3.76-.66,8.67,8.67,0,0,1-5-4.75,9.58,9.58,0,0,1,0-7.24,8.59,8.59,0,0,1,2-2.87,8.76,8.76,0,0,1,3-1.88,11,11,0,0,1,7.87.12,7.87,7.87,0,0,1,3.09,2.31l-2.62,2.39a5.91,5.91,0,0,0-2-1.54,5.56,5.56,0,0,0-2.41-.53,5.93,5.93,0,0,0-2.25.42,5.19,5.19,0,0,0-2.93,2.93,6.49,6.49,0,0,0,0,4.54,5.33,5.33,0,0,0,1.16,1.77,5.18,5.18,0,0,0,1.77,1.16,5.92,5.92,0,0,0,2.25.41,5.56,5.56,0,0,0,2.41-.53,6.11,6.11,0,0,0,2-1.56l2.62,2.39a8,8,0,0,1-3.09,2.32A10.36,10.36,0,0,1,849.23,129.11Z"/><path class="cls-3" d="M863.2,128.81h-4.07V111.34h4.07Zm8.21-7.16h-8.53v-3.42h8.53Zm-.3-10.31h4v17.47h-4Z"/><path class="cls-3" d="M887.65,129.11a10.45,10.45,0,0,1-3.75-.66,8.87,8.87,0,0,1-3-1.88,8.78,8.78,0,0,1-2-2.87,9.58,9.58,0,0,1,0-7.24,8.71,8.71,0,0,1,2-2.87,9,9,0,0,1,3-1.88,11,11,0,0,1,7.88.12,7.87,7.87,0,0,1,3.09,2.31l-2.62,2.39a5.91,5.91,0,0,0-2-1.54,5.59,5.59,0,0,0-2.41-.53,5.85,5.85,0,0,0-2.25.42,5.19,5.19,0,0,0-2.93,2.93,6.49,6.49,0,0,0,0,4.54,5.33,5.33,0,0,0,1.16,1.77,5.18,5.18,0,0,0,1.77,1.16,5.85,5.85,0,0,0,2.25.41,5.59,5.59,0,0,0,2.41-.53,6.11,6.11,0,0,0,2-1.56l2.62,2.39a8,8,0,0,1-3.09,2.32A10.45,10.45,0,0,1,887.65,129.11Z"/><path class="cls-3" d="M895.27,128.81,903,111.34h4l7.83,17.47h-4.24l-6.41-15.42h1.62l-6.41,15.42Zm3.91-3.74,1-3.07h9l1,3.07Z"/><path class="cls-3" d="M916.67,128.81V111.34h7.57a9.94,9.94,0,0,1,4,.76,6,6,0,0,1,2.62,2.19,6.65,6.65,0,0,1,0,6.75,5.81,5.81,0,0,1-2.62,2.14,10,10,0,0,1-4,.74H918.9l1.84-1.75v6.64Zm4.07-6.19-1.84-1.92H924a4.23,4.23,0,0,0,2.8-.8,3.14,3.14,0,0,0,0-4.48,4.35,4.35,0,0,0-2.8-.78H918.9l1.84-1.92Zm7.06,6.19-4.39-6.34h4.34l4.4,6.34Z"/><path class="cls-3" d="M936.24,129a2.35,2.35,0,0,1-1.71-.69,2.26,2.26,0,0,1-.71-1.73,2.31,2.31,0,0,1,.71-1.77,2.53,2.53,0,0,1,3.43,0,2.34,2.34,0,0,1,.7,1.77,2.29,2.29,0,0,1-.7,1.73A2.36,2.36,0,0,1,936.24,129Z"/><path class="cls-3" d="M949.94,129.11a10.5,10.5,0,0,1-3.76-.66,9,9,0,0,1-3-1.88,9.31,9.31,0,0,1-2-10.11,8.76,8.76,0,0,1,5-4.75,11,11,0,0,1,7.87.12,7.87,7.87,0,0,1,3.09,2.31l-2.62,2.39a5.91,5.91,0,0,0-2-1.54,5.56,5.56,0,0,0-2.41-.53,5.84,5.84,0,0,0-2.24.42,5.13,5.13,0,0,0-1.78,1.16,5.28,5.28,0,0,0-1.16,1.77,6.49,6.49,0,0,0,0,4.54,5.49,5.49,0,0,0,1.16,1.77,5.13,5.13,0,0,0,1.78,1.16,5.84,5.84,0,0,0,2.24.41,5.56,5.56,0,0,0,2.41-.53,6.11,6.11,0,0,0,2-1.56l2.62,2.39a8,8,0,0,1-3.09,2.32A10.36,10.36,0,0,1,949.94,129.11Z"/><path class="cls-3" d="M968.33,129.11a10.5,10.5,0,0,1-3.82-.67,9.15,9.15,0,0,1-3-1.9,8.38,8.38,0,0,1-2-2.87,9.48,9.48,0,0,1,0-7.2,8.53,8.53,0,0,1,2-2.86,9.24,9.24,0,0,1,3-1.89,10.36,10.36,0,0,1,3.8-.68,10.66,10.66,0,0,1,3.81.67,9,9,0,0,1,3,1.88,8.76,8.76,0,0,1,2,2.87,9.53,9.53,0,0,1,0,7.22,8.74,8.74,0,0,1-2,2.89,9.16,9.16,0,0,1-3,1.88A10.57,10.57,0,0,1,968.33,129.11Zm0-3.42a5.47,5.47,0,0,0,2.16-.41,5.13,5.13,0,0,0,1.74-1.17,5.55,5.55,0,0,0,1.16-1.77,6.43,6.43,0,0,0,0-4.52,5.55,5.55,0,0,0-1.16-1.77,5.13,5.13,0,0,0-1.74-1.17,5.47,5.47,0,0,0-2.16-.42,5.56,5.56,0,0,0-2.17.42,5,5,0,0,0-1.73,1.17,5.52,5.52,0,0,0-1.15,1.77,6.43,6.43,0,0,0,0,4.52,5.52,5.52,0,0,0,1.15,1.77,5,5,0,0,0,1.73,1.17A5.55,5.55,0,0,0,968.3,125.69Z"/><path class="cls-3" d="M980.9,128.81V111.34h3.35l7.43,12.33h-1.77l7.29-12.33h3.37v17.47H996.8l0-11.65h.75l-5.89,9.78h-1.8l-6-9.78h.82v11.65Z"/><path class="cls-3" d="M1017,539.71c-.09.63-.17,1.25-.27,1.88a16.35,16.35,0,0,1-1.58,4.71,11.82,11.82,0,0,1-1.75,2.83,6.86,6.86,0,0,1-4.46,2.27,9.29,9.29,0,0,1-4.51-.77.7.7,0,0,0-.66,0,5.08,5.08,0,0,1-3.15.6,1,1,0,0,1-.47-.2,21.16,21.16,0,0,1-4.23-4.43,47.67,47.67,0,0,1-6-11.3,4.64,4.64,0,0,1,2.13-5.85,9.91,9.91,0,0,1,2.73-1.13,4.07,4.07,0,0,1,.78-.11,1.43,1.43,0,0,1,1.65,1.16c.37,1.13.67,2.29,1,3.45a1,1,0,0,1-.25.72,4.28,4.28,0,0,1-2,1.33l-.87.29a43.4,43.4,0,0,0,6.13,9.74,5.91,5.91,0,0,1,1.74-1.68.92.92,0,0,1,1.11-.09,4.57,4.57,0,0,1,1,.68c.86.85,1.7,1.72,2.53,2.61a.67.67,0,0,1,.09.83c-.23.38-.51.73-.76,1.08a4.24,4.24,0,0,0,5.15-2.09,30.44,30.44,0,0,0,1.41-3.08,13.18,13.18,0,0,0,.73-5.81,13.9,13.9,0,0,0-5.19-9.83,13.63,13.63,0,0,0-7.71-3.14A14.16,14.16,0,0,0,987,532.58a13.4,13.4,0,0,0-1.26,7.13,13.91,13.91,0,0,0,7.41,11.38,13.67,13.67,0,0,0,7.47,1.7,1.58,1.58,0,0,1,1.24.35,1.44,1.44,0,0,1-.61,2.46l-.22.07H998.7c-.55-.08-1.1-.14-1.64-.23a16.48,16.48,0,0,1-8.82-4.38,16.72,16.72,0,0,1-5.19-15.32,15.82,15.82,0,0,1,4.37-8.82,16.69,16.69,0,0,1,16.38-5,16.3,16.3,0,0,1,9.07,5.51,16.58,16.58,0,0,1,3.93,8.61c.06.46.13.92.19,1.38Z"/><path class="cls-3" d="M1011,538.91a12.07,12.07,0,0,1-.73,3.51,1.44,1.44,0,0,1-1.8,1,1.41,1.41,0,0,1-.92-1.87,8.67,8.67,0,0,0,.52-3.56,8.1,8.1,0,0,0-2.59-5.4,8.44,8.44,0,0,0-2.57-1.63,1.38,1.38,0,0,1-.94-1.33,1.41,1.41,0,0,1,1.92-1.35,10.77,10.77,0,0,1,5.17,4.1,11.12,11.12,0,0,1,1.84,4.91C1010.94,537.82,1011,538.36,1011,538.91Z"/><path class="cls-3" d="M1007,538.56a7.42,7.42,0,0,1-.44,2.38,1.45,1.45,0,0,1-1.82,1,1.44,1.44,0,0,1-.9-1.91,4.17,4.17,0,0,0-.41-3.76,4,4,0,0,0-1.87-1.56,1.46,1.46,0,0,1-1-1.38,1.41,1.41,0,0,1,2-1.34,6.91,6.91,0,0,1,4.38,5.38A11.12,11.12,0,0,1,1007,538.56Z"/><path class="cls-3" d="M1063,548.81a9.42,9.42,0,0,1-5.11-1.42,9.81,9.81,0,0,1-3.56-4.09,17,17,0,0,1,0-13.07,9.87,9.87,0,0,1,3.56-4.09,10,10,0,0,1,10.25,0,9.78,9.78,0,0,1,3.55,4.09,16.84,16.84,0,0,1,0,13.07,9.72,9.72,0,0,1-3.55,4.09A9.47,9.47,0,0,1,1063,548.81Zm0-4.53a3.8,3.8,0,0,0,2.38-.78,5.15,5.15,0,0,0,1.59-2.44,16.16,16.16,0,0,0,0-8.58,5.18,5.18,0,0,0-1.59-2.45,3.8,3.8,0,0,0-2.38-.78,3.76,3.76,0,0,0-2.33.78,5.15,5.15,0,0,0-1.63,2.45,15.64,15.64,0,0,0,0,8.58,5.12,5.12,0,0,0,1.63,2.44A3.76,3.76,0,0,0,1063,544.28Z"/><path class="cls-3" d="M1079.35,548.41l9.38-21.22,1.39,2.33h-12.5L1080,527v6.35h-4.76v-8.21h18.66v3.49l-8.65,19.79Z"/><path class="cls-3" d="M1096,543.52v-3.63l11-14.76h5.65l-10.7,14.76-2.67-.76h18.33v4.39Zm12.53,4.89v-4.89l.17-4.39v-4.36h5.09v13.64Z"/><path class="cls-3" d="M1122.75,548.41V527.12l2.33,2.33h-7v-4.32h10v23.28Z"/><path class="cls-3" d="M1141.84,548.81a13.79,13.79,0,0,1-5.14-.87,7.78,7.78,0,0,1-3.41-2.48,6.07,6.07,0,0,1-1.23-3.8,5.64,5.64,0,0,1,1.2-3.66,7.4,7.4,0,0,1,3.41-2.3,17.14,17.14,0,0,1,10.35,0,7.49,7.49,0,0,1,3.41,2.31,5.66,5.66,0,0,1,1.22,3.65,6.13,6.13,0,0,1-1.22,3.8,7.64,7.64,0,0,1-3.42,2.48A14.1,14.1,0,0,1,1141.84,548.81Zm0-11.18a13.71,13.71,0,0,1-4.71-.73,6.86,6.86,0,0,1-3.13-2.15,5.32,5.32,0,0,1-1.11-3.4,5.61,5.61,0,0,1,1.13-3.51,7.3,7.3,0,0,1,3.16-2.3,13.92,13.92,0,0,1,9.36,0,7.3,7.3,0,0,1,3.14,2.3,5.56,5.56,0,0,1,1.14,3.51,5.37,5.37,0,0,1-1.1,3.4,6.7,6.7,0,0,1-3.13,2.15A14,14,0,0,1,1141.84,537.63Zm0,7.22a5.13,5.13,0,0,0,3.2-.9,3,3,0,0,0,1.19-2.49,2.87,2.87,0,0,0-1.19-2.4,6.1,6.1,0,0,0-6.38,0,2.86,2.86,0,0,0-1.18,2.4,3,3,0,0,0,1.18,2.49A5.13,5.13,0,0,0,1141.84,544.85Zm0-10.38a4.22,4.22,0,0,0,2.67-.76,2.53,2.53,0,0,0,1-2.13,2.5,2.5,0,0,0-1-2.13,4.29,4.29,0,0,0-2.64-.77,4.16,4.16,0,0,0-2.6.77,2.58,2.58,0,0,0-1,2.16,2.55,2.55,0,0,0,1,2.1A4.12,4.12,0,0,0,1141.84,534.47Z"/><path class="cls-3" d="M1157.83,548.41l9.38-21.22,1.4,2.33H1156.1l2.33-2.53v6.35h-4.76v-8.21h18.66v3.49l-8.64,19.79Z"/><path class="cls-3" d="M1174.46,543.52v-3.63l11-14.76h5.65l-10.71,14.76-2.66-.76H1196v4.39Zm12.54,4.89v-4.89l.17-4.39v-4.36h5.08v13.64Z"/><path class="cls-3" d="M1205.56,548.81a18.28,18.28,0,0,1-4.81-.65,12.63,12.63,0,0,1-4.07-1.88l2.12-4.09a10.65,10.65,0,0,0,3,1.54,11.14,11.14,0,0,0,3.57.59,5.59,5.59,0,0,0,3.21-.82,2.57,2.57,0,0,0,1.18-2.24,2.66,2.66,0,0,0-.48-1.6,3.27,3.27,0,0,0-1.66-1,11.41,11.41,0,0,0-3.31-.38h-5.92l1.16-13.1h14.24v4.32h-12.31l2.8-2.46-.87,9.34-2.76-2.42h4.92a13.9,13.9,0,0,1,5.56.93,6.5,6.5,0,0,1,3.07,2.58,7,7,0,0,1,1,3.7,7.32,7.32,0,0,1-1,3.79,7.23,7.23,0,0,1-3.17,2.83A12.31,12.31,0,0,1,1205.56,548.81Z"/><path class="cls-3" d="M1227.84,548.81a11,11,0,0,1-5.52-1.32,8.75,8.75,0,0,1-3.61-3.89,14,14,0,0,1-1.28-6.3,14.19,14.19,0,0,1,1.51-6.85,10.36,10.36,0,0,1,4.19-4.26,12.68,12.68,0,0,1,6.2-1.46,15.16,15.16,0,0,1,3.53.41,10.26,10.26,0,0,1,2.93,1.18l-2,4a5.83,5.83,0,0,0-2.06-.91,10.13,10.13,0,0,0-2.3-.25,6.39,6.39,0,0,0-4.79,1.84,7.5,7.5,0,0,0-1.79,5.41c0,.4,0,.84,0,1.33a8.13,8.13,0,0,0,.2,1.46l-1.5-1.4a7,7,0,0,1,1.63-2.17,6.52,6.52,0,0,1,2.38-1.33,9.81,9.81,0,0,1,3.05-.45,9,9,0,0,1,4,.89,7.36,7.36,0,0,1,2.88,2.53,6.77,6.77,0,0,1,1.08,3.83,7.25,7.25,0,0,1-1.16,4.1,7.64,7.64,0,0,1-3.16,2.7A10.37,10.37,0,0,1,1227.84,548.81Zm-.3-4a4.78,4.78,0,0,0,2-.41,3.21,3.21,0,0,0,1.38-1.22,3.39,3.39,0,0,0,.5-1.83,3.21,3.21,0,0,0-1.08-2.54,4.22,4.22,0,0,0-2.88-.95,4.44,4.44,0,0,0-2.09.47,3.73,3.73,0,0,0-1.42,1.24,3.26,3.26,0,0,0-.51,1.82,3.1,3.1,0,0,0,.5,1.74,3.4,3.4,0,0,0,1.39,1.23A4.87,4.87,0,0,0,1227.54,544.78Z"/><path class="cls-3" d="M1242.2,548.41V527.12l2.33,2.33h-7v-4.32h10v23.28Z"/><path class="cls-3" d="M447.59,543c-5.73,0-11.45,0-17.17,0a1.55,1.55,0,0,1-1.54-.87,1,1,0,0,1-.11-.45q0-9.35,0-18.69a1.49,1.49,0,0,1,.61-1.1c1.36-1.28,2.72-2.56,4.1-3.83a1,1,0,0,0,.36-.81q0-3.6,0-7.19c0-.6,0-.6.61-.6h7.64a1.39,1.39,0,0,0,1-.4c1.14-1.1,2.31-2.17,3.47-3.26a1.37,1.37,0,0,1,2.14,0c1.18,1.1,2.35,2.21,3.56,3.29a1.3,1.3,0,0,0,.82.33c2.59,0,5.19,0,7.78,0,.57,0,.58,0,.58.57,0,2.4,0,4.8,0,7.19a1,1,0,0,0,.35.82c1.36,1.25,2.69,2.52,4.05,3.77a2,2,0,0,1,.68,1.56c0,6,0,12,0,18.06a1.41,1.41,0,0,1-1.58,1.56Zm-16.4-1.75H464.1c-.12-.15-.18-.24-.26-.32L448,526.07c-.26-.24-.41-.24-.67,0l-15.86,14.81C431.38,541,431.32,541,431.19,541.2Zm18.73-16.31a2,2,0,0,1,.16.19,1.56,1.56,0,0,0,1.31,1,12.12,12.12,0,0,0,2.62.09,2.46,2.46,0,0,0,2.37-2.26,13.91,13.91,0,0,0-.23-6.32,6.67,6.67,0,0,0-4.92-4.89,13.35,13.35,0,0,0-6.93-.06,6.81,6.81,0,0,0-5.22,5.24,13.63,13.63,0,0,0,0,6.89,6.26,6.26,0,0,0,3.49,4.27c.13.06.34.11.41.05.4-.33.77-.7,1.19-1.09a3,3,0,0,0-.34-.18,5.41,5.41,0,0,1-3.26-3.91,11.26,11.26,0,0,1,0-5.65,5.45,5.45,0,0,1,4-4.09,11.51,11.51,0,0,1,5.74-.12,5.37,5.37,0,0,1,3.65,2.54,7.11,7.11,0,0,1,.89,2.76,14.31,14.31,0,0,1,0,4.43,1.13,1.13,0,0,1-.65.91,1.3,1.3,0,0,1-2-1.25v-6.2c0-.84,0-.8-.85-.92-.63-.1-1.1,0-1.37.62-.12.29-.27.2-.48,0a2.75,2.75,0,0,0-.91-.61,6.19,6.19,0,0,0-3.28-.12,3.28,3.28,0,0,0-2.58,2.26,8.47,8.47,0,0,0-.08,5.08,3.08,3.08,0,0,0,1.86,2.18c1.19.44,1.63.54,2.33-.19s.74-.83,1.57,0a.46.46,0,0,0,.67.06C449.37,525.37,449.62,525.14,449.92,524.89ZM430.56,540.7l.38-.32c2.76-2.58,5.51-5.16,8.28-7.73.31-.28.32-.44,0-.73-2.8-2.59-5.59-5.21-8.38-7.81-.07-.06-.16-.11-.29-.2Zm34.17-16.81a2.46,2.46,0,0,0-.28.21L456,531.94c-.28.26-.3.4,0,.67,2.79,2.59,5.56,5.19,8.34,7.79.09.08.2.15.36.27Zm-3.24,1.91a.83.83,0,0,0,.21-.12l2.66-2.48c.22-.2.16-.33,0-.51l-2.62-2.44a.89.89,0,0,0-.22-.11Zm-27.71.06v-5.79c-1,1-2,1.83-2.91,2.73-.06.05,0,.29,0,.36Zm16.12-16.47.06-.12c-.72-.66-1.44-1.34-2.17-2-.06-.06-.29,0-.38.07-.64.58-1.28,1.17-1.91,1.77a1.92,1.92,0,0,0-.16.27Zm1.32,18.74c.43.39.82.75,1.22,1.09.05,0,.2,0,.29,0,1-.32,1-.33.55-1.3,0-.09-.07-.21-.14-.27a.41.41,0,0,0-.29-.12C452.34,527.7,451.83,527.9,451.22,528.13Z"/><path class="cls-3" d="M449.64,521.06a10.85,10.85,0,0,1-.21,1.27c-.29,1.14-1.11,1.64-2.47,1.57a2,2,0,0,1-1.87-1.8,5,5,0,0,1,.14-2.52,1.63,1.63,0,0,1,1.36-1.09,4.29,4.29,0,0,1,1.43,0,1.77,1.77,0,0,1,1.53,1.74c0,.26,0,.53.06.8Z"/><path class="cls-3" d="M502.53,520.47a5.69,5.69,0,0,1,2.58.58,4.18,4.18,0,0,1,1.8,1.76,6.31,6.31,0,0,1,.65,3v6.95H504v-6.41a3.18,3.18,0,0,0-.64-2.17,2.38,2.38,0,0,0-1.82-.7,3.08,3.08,0,0,0-1.5.36,2.45,2.45,0,0,0-1,1.07,3.89,3.89,0,0,0-.38,1.85v6h-3.52V520.65h3.37V524l-.64-1a4.52,4.52,0,0,1,1.88-1.87A5.74,5.74,0,0,1,502.53,520.47Z"/><path class="cls-3" d="M515.94,533a6.14,6.14,0,0,1-3.09-.78,5.68,5.68,0,0,1-2.17-2.18,7.29,7.29,0,0,1,0-6.6,5.68,5.68,0,0,1,2.17-2.18,6.14,6.14,0,0,1,3.09-.78,5.24,5.24,0,0,1,2.69.68,4.42,4.42,0,0,1,1.78,2.06,8.46,8.46,0,0,1,.63,3.52,8.75,8.75,0,0,1-.61,3.52,4.2,4.2,0,0,1-1.75,2.07A5.37,5.37,0,0,1,515.94,533Zm.59-2.9a3.22,3.22,0,0,0,1.58-.39,2.91,2.91,0,0,0,1.12-1.16,3.87,3.87,0,0,0,.41-1.81,3.75,3.75,0,0,0-.41-1.81,3.07,3.07,0,0,0-1.12-1.14,3.22,3.22,0,0,0-1.58-.39,3.17,3.17,0,0,0-1.56.39,3,3,0,0,0-1.12,1.14,3.64,3.64,0,0,0-.42,1.81,3.75,3.75,0,0,0,.42,1.81A2.85,2.85,0,0,0,515,529.7,3.17,3.17,0,0,0,516.53,530.09Zm3.2,2.71v-2.48l.07-3.61-.22-3.59v-7.07h3.52V532.8Z"/><path class="cls-3" d="M532.11,533a7.09,7.09,0,0,1-3.42-.82,6.31,6.31,0,0,1-2.36-8.68,6,6,0,0,1,2.36-2.21,7.08,7.08,0,0,1,3.42-.81,7.17,7.17,0,0,1,3.45.81,6,6,0,0,1,2.38,2.21,6.58,6.58,0,0,1,0,6.47,6.19,6.19,0,0,1-2.38,2.21A7.18,7.18,0,0,1,532.11,533Zm0-2.9a3.18,3.18,0,0,0,1.59-.39,2.89,2.89,0,0,0,1.11-1.16,3.75,3.75,0,0,0,.42-1.81,3.64,3.64,0,0,0-.42-1.81,3,3,0,0,0-1.11-1.14,3.13,3.13,0,0,0-1.57-.39,3.19,3.19,0,0,0-1.58.39,3,3,0,0,0-1.12,1.14,3.64,3.64,0,0,0-.41,1.81,3.75,3.75,0,0,0,.41,1.81,2.85,2.85,0,0,0,1.12,1.16A3.17,3.17,0,0,0,532.11,530.09Z"/><path class="cls-3" d="M547,533a7.31,7.31,0,0,1-3.49-.81,6,6,0,0,1-2.4-2.22,6.08,6.08,0,0,1-.87-3.23,6,6,0,0,1,.87-3.23,6.17,6.17,0,0,1,2.4-2.21,7.31,7.31,0,0,1,3.49-.82,6.73,6.73,0,0,1,3.35.81,4.73,4.73,0,0,1,2.07,2.26l-2.71,1.5a3.4,3.4,0,0,0-1.2-1.26,3.12,3.12,0,0,0-1.54-.39,3.32,3.32,0,0,0-1.6.39,3,3,0,0,0-1.15,1.14,3.54,3.54,0,0,0-.43,1.81,3.6,3.6,0,0,0,.43,1.82,2.89,2.89,0,0,0,1.15,1.15,3.32,3.32,0,0,0,1.6.39,3.12,3.12,0,0,0,1.54-.39,3.32,3.32,0,0,0,1.2-1.28l2.71,1.49a4.77,4.77,0,0,1-2.07,2.26A6.73,6.73,0,0,1,547,533Z"/><path class="cls-3" d="M561.9,520.47a5.69,5.69,0,0,1,2.58.58,4.18,4.18,0,0,1,1.8,1.76,6.2,6.2,0,0,1,.65,3v6.95h-3.52v-6.41a3.13,3.13,0,0,0-.64-2.17,2.38,2.38,0,0,0-1.82-.7,3.08,3.08,0,0,0-1.5.36,2.5,2.5,0,0,0-1,1.07,3.9,3.9,0,0,0-.37,1.85v6h-3.53V516.05H558v8l-.79-1a4.5,4.5,0,0,1,1.87-1.87A5.74,5.74,0,0,1,561.9,520.47Z"/><path class="cls-3" d="M576,533a7.31,7.31,0,0,1-3.49-.81,6,6,0,0,1-2.4-2.22,6.08,6.08,0,0,1-.87-3.23,6,6,0,0,1,.87-3.23,6.17,6.17,0,0,1,2.4-2.21,7.31,7.31,0,0,1,3.49-.82,6.7,6.7,0,0,1,3.35.81,4.63,4.63,0,0,1,2.07,2.26l-2.71,1.5a3.25,3.25,0,0,0-1.2-1.26,3.12,3.12,0,0,0-1.54-.39,3.32,3.32,0,0,0-1.6.39,3.07,3.07,0,0,0-1.15,1.14,3.54,3.54,0,0,0-.43,1.81,3.6,3.6,0,0,0,.43,1.82,3,3,0,0,0,1.15,1.15,3.32,3.32,0,0,0,1.6.39,3.12,3.12,0,0,0,1.54-.39,3.18,3.18,0,0,0,1.2-1.28l2.71,1.49a4.67,4.67,0,0,1-2.07,2.26A6.7,6.7,0,0,1,576,533Z"/><path class="cls-3" d="M587.21,533a5.57,5.57,0,0,1-2.41-.49,3.73,3.73,0,0,1-1.57-1.32,3.32,3.32,0,0,1-.56-1.88,3.2,3.2,0,0,1,2.22-3.16,8.43,8.43,0,0,1,3-.45h3.21v2h-2.85a2.65,2.65,0,0,0-1.7.41,1.29,1.29,0,0,0-.46,1,1.24,1.24,0,0,0,.53,1.07,2.36,2.36,0,0,0,1.43.39,3.24,3.24,0,0,0,1.62-.4,2.22,2.22,0,0,0,1-1.24l.54,1.64a3.12,3.12,0,0,1-1.4,1.75A4.89,4.89,0,0,1,587.21,533Zm3.71-.19v-2.37l-.23-.52v-4.24a2.27,2.27,0,0,0-.69-1.76,3,3,0,0,0-2.11-.64,6.26,6.26,0,0,0-1.91.31,5.42,5.42,0,0,0-1.61.82l-1.24-2.46a7,7,0,0,1,2.39-1.09,10.94,10.94,0,0,1,2.85-.38,6.47,6.47,0,0,1,4.31,1.31,5.11,5.11,0,0,1,1.53,4.09v6.93Z"/><path class="cls-3" d="M597.4,532.8V520.65h3.36v3.46l-.47-1a3.9,3.9,0,0,1,1.74-2,6,6,0,0,1,2.91-.67v3.28l-.39-.07-.38,0a3.34,3.34,0,0,0-2.37.83,3.44,3.44,0,0,0-.88,2.58v5.73Z"/><path class="cls-3" d="M611.22,533a11.64,11.64,0,0,1-3-.38,7.92,7.92,0,0,1-2.28-.93l1.15-2.51a8.52,8.52,0,0,0,2,.82,8.06,8.06,0,0,0,2.25.33,3.74,3.74,0,0,0,1.72-.29.91.91,0,0,0,.51-.82.69.69,0,0,0-.39-.64,3.75,3.75,0,0,0-1-.33c-.43-.07-.91-.15-1.44-.22a14.57,14.57,0,0,1-1.57-.32,5.71,5.71,0,0,1-1.44-.58,2.74,2.74,0,0,1-1.06-1,3.19,3.19,0,0,1-.4-1.7,3.32,3.32,0,0,1,.68-2,4.32,4.32,0,0,1,1.92-1.39,8.12,8.12,0,0,1,3-.5,11.58,11.58,0,0,1,2.54.29,7.38,7.38,0,0,1,2.16.78l-1.2,2.5a6.35,6.35,0,0,0-1.75-.7,7.94,7.94,0,0,0-1.7-.2,3.52,3.52,0,0,0-1.76.32.92.92,0,0,0-.55.81.76.76,0,0,0,.41.69,3.21,3.21,0,0,0,1.06.35c.44.07.92.15,1.45.22a14.39,14.39,0,0,1,1.56.32,6.19,6.19,0,0,1,1.43.57,2.91,2.91,0,0,1,1.06,1,3.29,3.29,0,0,1,.4,1.7,3.14,3.14,0,0,1-.68,2,4.42,4.42,0,0,1-1.95,1.37A8.66,8.66,0,0,1,611.22,533Z"/><path class="cls-3" d="M629.2,537.46a12.1,12.1,0,0,1-4.44-.78,10.11,10.11,0,0,1-3.43-2.18,9.68,9.68,0,0,1-2.21-3.3,10.92,10.92,0,0,1-.76-4.13,10.53,10.53,0,0,1,.78-4.09,9.54,9.54,0,0,1,2.22-3.27,9.92,9.92,0,0,1,3.46-2.17,12.48,12.48,0,0,1,4.47-.77,12.24,12.24,0,0,1,4.34.73,9.85,9.85,0,0,1,3.37,2.07,9.42,9.42,0,0,1,2.19,3.13,9.65,9.65,0,0,1,.78,3.89,9.11,9.11,0,0,1-.58,3.46,4.74,4.74,0,0,1-1.62,2.17,4.13,4.13,0,0,1-2.43.74,3.3,3.3,0,0,1-2.44-.89,3.57,3.57,0,0,1-.9-2.65v-1l.06-1.24-.2-3.28v-2.16h3V529a1.53,1.53,0,0,0,.33,1.13,1.06,1.06,0,0,0,.75.32,1.23,1.23,0,0,0,.91-.41,2.65,2.65,0,0,0,.57-1.25,9.85,9.85,0,0,0,.2-2.16,8.21,8.21,0,0,0-.59-3.14,6.81,6.81,0,0,0-1.72-2.45,8.15,8.15,0,0,0-2.66-1.59,9.76,9.76,0,0,0-3.41-.56,9.31,9.31,0,0,0-3.44.61,7.73,7.73,0,0,0-2.66,1.7,7.5,7.5,0,0,0-1.71,2.59,8.58,8.58,0,0,0-.59,3.25,9.15,9.15,0,0,0,.58,3.32,7.27,7.27,0,0,0,1.69,2.6,7.78,7.78,0,0,0,2.63,1.69,9.08,9.08,0,0,0,3.41.61,10.14,10.14,0,0,0,2.22-.25,10.27,10.27,0,0,0,2.23-.75l.72,2.08a9.24,9.24,0,0,1-2.43.8A13.65,13.65,0,0,1,629.2,537.46Zm-.82-4.5a5,5,0,0,1-2.64-.72,5.18,5.18,0,0,1-1.9-2,6.69,6.69,0,0,1,0-6,5,5,0,0,1,4.54-2.69,4.67,4.67,0,0,1,2.56.67,4.19,4.19,0,0,1,1.62,1.93,7.41,7.41,0,0,1,.57,3.07,7.71,7.71,0,0,1-.55,3.08,4.26,4.26,0,0,1-1.59,2A4.73,4.73,0,0,1,628.38,533Zm.73-2.59a2.76,2.76,0,0,0,1.44-.38,2.68,2.68,0,0,0,1-1.07,3.49,3.49,0,0,0,.37-1.67,3.41,3.41,0,0,0-.37-1.67,2.69,2.69,0,0,0-2.45-1.42,2.79,2.79,0,0,0-1.48.38,2.62,2.62,0,0,0-1,1.06,3.59,3.59,0,0,0-.35,1.65,3.71,3.71,0,0,0,.35,1.65,2.61,2.61,0,0,0,1,1.08A2.8,2.8,0,0,0,629.11,530.37Z"/><path class="cls-3" d="M647.62,532.22a6.34,6.34,0,0,1-3-.74,5.61,5.61,0,0,1-2.19-2.05,6.25,6.25,0,0,1,0-6.19,5.52,5.52,0,0,1,2.19-2,6.33,6.33,0,0,1,3-.73,5.81,5.81,0,0,1,2.75.62,4.35,4.35,0,0,1,1.82,1.94,7.49,7.49,0,0,1,.65,3.32,7.37,7.37,0,0,1-.65,3.3,4.37,4.37,0,0,1-1.82,1.93A5.59,5.59,0,0,1,647.62,532.22Zm.57,5.15a12.89,12.89,0,0,1-3.31-.42,7.25,7.25,0,0,1-2.65-1.25l1.4-2.56a5.73,5.73,0,0,0,2,1,7.65,7.65,0,0,0,2.36.37,3.79,3.79,0,0,0,2.71-.83,3.34,3.34,0,0,0,.86-2.49v-1.8l.22-3.07-.06-3.1v-2.6H655v10.12a6.45,6.45,0,0,1-1.76,5A7.22,7.22,0,0,1,648.19,537.37Zm.16-8A3.58,3.58,0,0,0,650,529a2.82,2.82,0,0,0,1.12-1.07,3.17,3.17,0,0,0,0-3.12,2.66,2.66,0,0,0-1.12-1,3.94,3.94,0,0,0-3.29,0,2.73,2.73,0,0,0-1.15,1,3.11,3.11,0,0,0,0,3.12,2.9,2.9,0,0,0,1.15,1.07A3.57,3.57,0,0,0,648.35,529.35Z"/><path class="cls-3" d="M673.82,520.47a5.55,5.55,0,0,1,2.56.58,4,4,0,0,1,1.75,1.76,6.32,6.32,0,0,1,.64,3v6.95h-3.53v-6.41a3.35,3.35,0,0,0-.59-2.17,2.12,2.12,0,0,0-1.69-.7,2.82,2.82,0,0,0-1.4.35,2.3,2.3,0,0,0-.93,1,4.19,4.19,0,0,0-.33,1.8v6.09h-3.52v-6.41a3.29,3.29,0,0,0-.6-2.17,2.18,2.18,0,0,0-1.73-.7,2.77,2.77,0,0,0-1.38.35,2.46,2.46,0,0,0-1,1,4.18,4.18,0,0,0-.34,1.8v6.09h-3.52V520.65h3.37V524l-.64-1a4.28,4.28,0,0,1,1.79-1.88,5.38,5.38,0,0,1,2.64-.65,5.23,5.23,0,0,1,2.94.85,4.11,4.11,0,0,1,1.67,2.59l-1.24-.34a4.92,4.92,0,0,1,1.94-2.25A5.68,5.68,0,0,1,673.82,520.47Z"/><path class="cls-3" d="M685.7,533a5.65,5.65,0,0,1-2.42-.49,3.79,3.79,0,0,1-1.57-1.32,3.4,3.4,0,0,1-.55-1.88,3.21,3.21,0,0,1,2.21-3.16,8.49,8.49,0,0,1,3-.45h3.21v2h-2.85a2.63,2.63,0,0,0-1.7.41,1.3,1.3,0,0,0-.47,1,1.27,1.27,0,0,0,.53,1.07,2.41,2.41,0,0,0,1.44.39,3.18,3.18,0,0,0,1.61-.4,2.24,2.24,0,0,0,1-1.24l.54,1.64a3.17,3.17,0,0,1-1.4,1.75A4.91,4.91,0,0,1,685.7,533Zm3.7-.19v-2.37l-.22-.52v-4.24a2.27,2.27,0,0,0-.69-1.76,3,3,0,0,0-2.11-.64,6.21,6.21,0,0,0-1.91.31,5.48,5.48,0,0,0-1.62.82l-1.24-2.46a7.06,7.06,0,0,1,2.4-1.09,10.92,10.92,0,0,1,2.84-.38,6.5,6.5,0,0,1,4.32,1.31,5.11,5.11,0,0,1,1.53,4.09v6.93Z"/><path class="cls-3" d="M697.65,519a2.3,2.3,0,0,1-1.61-.56,1.87,1.87,0,0,1-.61-1.4,1.84,1.84,0,0,1,.61-1.4,2.26,2.26,0,0,1,1.61-.57,2.4,2.4,0,0,1,1.59.53,1.74,1.74,0,0,1,.62,1.37,1.88,1.88,0,0,1-.61,1.45A2.22,2.22,0,0,1,697.65,519Zm-1.76,13.84V520.65h3.52V532.8Z"/><path class="cls-3" d="M702.68,532.8V516.05h3.53V532.8Z"/><path class="cls-3" d="M710.81,533a2.12,2.12,0,0,1-1.54-.63,2.07,2.07,0,0,1-.65-1.57,2.11,2.11,0,0,1,.65-1.6,2.27,2.27,0,0,1,3.1,0,2.13,2.13,0,0,1,.63,1.6,2.09,2.09,0,0,1-.63,1.57A2.12,2.12,0,0,1,710.81,533Z"/><path class="cls-3" d="M721.27,533a7.34,7.34,0,0,1-3.49-.81,6,6,0,0,1-2.39-2.22,6.08,6.08,0,0,1-.87-3.23,6,6,0,0,1,.87-3.23,6.15,6.15,0,0,1,2.39-2.21,7.34,7.34,0,0,1,3.49-.82,6.67,6.67,0,0,1,3.35.81,4.63,4.63,0,0,1,2.07,2.26L724,525a3.25,3.25,0,0,0-1.2-1.26,3.08,3.08,0,0,0-1.53-.39,3.33,3.33,0,0,0-1.61.39,3.07,3.07,0,0,0-1.15,1.14,3.64,3.64,0,0,0-.43,1.81,3.71,3.71,0,0,0,.43,1.82,3,3,0,0,0,1.15,1.15,3.33,3.33,0,0,0,1.61.39,3.08,3.08,0,0,0,1.53-.39,3.18,3.18,0,0,0,1.2-1.28l2.71,1.49a4.67,4.67,0,0,1-2.07,2.26A6.68,6.68,0,0,1,721.27,533Z"/><path class="cls-3" d="M734.53,533a7.16,7.16,0,0,1-3.43-.82,6.33,6.33,0,0,1-2.36-8.68,6.05,6.05,0,0,1,2.36-2.21,7.71,7.71,0,0,1,6.88,0,6,6,0,0,1,2.37,2.21,6.15,6.15,0,0,1-2.37,8.68A7.21,7.21,0,0,1,734.53,533Zm0-2.9a3.18,3.18,0,0,0,1.59-.39,2.81,2.81,0,0,0,1.1-1.16,3.75,3.75,0,0,0,.42-1.81,3.64,3.64,0,0,0-.42-1.81,2.94,2.94,0,0,0-1.1-1.14,3.13,3.13,0,0,0-1.57-.39,3.16,3.16,0,0,0-1.58.39,3,3,0,0,0-1.12,1.14,3.64,3.64,0,0,0-.42,1.81,3.75,3.75,0,0,0,.42,1.81A2.85,2.85,0,0,0,733,529.7,3.11,3.11,0,0,0,734.53,530.09Z"/><path class="cls-3" d="M759.12,520.47a5.55,5.55,0,0,1,2.56.58,4,4,0,0,1,1.75,1.76,6.44,6.44,0,0,1,.64,3v6.95h-3.53v-6.41a3.29,3.29,0,0,0-.6-2.17,2.11,2.11,0,0,0-1.68-.7,2.8,2.8,0,0,0-1.4.35,2.32,2.32,0,0,0-.94,1,4.36,4.36,0,0,0-.32,1.8v6.09h-3.53v-6.41a3.29,3.29,0,0,0-.6-2.17,2.14,2.14,0,0,0-1.72-.7,2.75,2.75,0,0,0-1.38.35,2.4,2.4,0,0,0-1,1,4.18,4.18,0,0,0-.34,1.8v6.09h-3.52V520.65h3.36V524l-.63-1a4.23,4.23,0,0,1,1.79-1.88,5.38,5.38,0,0,1,2.64-.65,5.17,5.17,0,0,1,2.93.85,4.12,4.12,0,0,1,1.68,2.59l-1.25-.34a5,5,0,0,1,1.95-2.25A5.64,5.64,0,0,1,759.12,520.47Z"/><rect class="cls-1" width="1900" height="72.63"/></svg>